# xmcd
#
# Track frame offsets:
#	183
#	24395
#	48145
#	74228
#	97258
#	119520
#	145795
#	163433
#	175740
#
# Disc length: 2585 seconds
#
# Revision: 1
# Processed by: cddbd v1.5.1PL0 Copyright (c) Steve Scherf et al.
# Submitted via: audiograbber 1.83.01
#
DISCID=850a1709
DTITLE=The Williams Brothers - First Class Gospel
DYEAR=1900
DGENRE=Gospel
TTITLE0=Lord I Wanna Be Close To You
TTITLE1=Take It To The Lord In Player
TTITLE2=I'M Waiting On Time
TTITLE3=You've Been Good To Me
TTITLE4=I'll Never Turn Away From God
TTITLE5=I Feel God
TTITLE6=All The Way
TTITLE7=So Good To Be Alive
TTITLE8=A Mighty Good Friend
EXTD=
EXTT0=
EXTT1=
EXTT2=
EXTT3=
EXTT4=
EXTT5=
EXTT6=
EXTT7=
EXTT8=
PLAYORDER=
